HIERARCHY
ROOT ui
{
	 OFFSET 0 0 0
	 CHANNELS 3 XPosition YPosition Z Position
	 EndSite
	 {
	 OFFSET 0 -1 0
	 }
}
ROOT li
{
	 OFFSET 0 0 0
	 CHANNELS 3 XPosition YPosition Z Position
	 EndSite
	 {
	 OFFSET 0 -1 0
	 }
}
ROOT ul
{
	 OFFSET 0 0 0
	 CHANNELS 3 XPosition YPosition Z Position
	 EndSite
	 {
	 OFFSET 0 -1 0
	 }
}
ROOT ll
{
	 OFFSET 0 0 0
	 CHANNELS 3 XPosition YPosition Z Position
	 EndSite
	 {
	 OFFSET 0 -1 0
	 }
}
ROOT tt
{
	 OFFSET 0 0 0
	 CHANNELS 3 XPosition YPosition Z Position
	 EndSite
	 {
	 OFFSET 0 -1 0
	 }
}
ROOT tb
{
	 OFFSET 0 0 0
	 CHANNELS 3 XPosition YPosition Z Position
	 EndSite
	 {
	 OFFSET 0 -1 0
	 }
}
ROOT td
{
	 OFFSET 0 0 0
	 CHANNELS 3 XPosition YPosition Z Position
	 EndSite
	 {
	 OFFSET 0 -1 0
	 }
}
ROOT v
{
	 OFFSET 0 0 0
	 CHANNELS 3 XPosition YPosition Z Position
	 EndSite
	 {
	 OFFSET 0 -1 0
	 }
}
ROOT bn
{
	 OFFSET 0 0 0
	 CHANNELS 3 XPosition YPosition Z Position
	 EndSite
	 {
	 OFFSET 0 -1 0
	 }
}
MOTION
Frames: 21
Frame Time: 0.002
2.043209969997406E-4	-3.084700107574463E-4	0		0.4835355224609375	-2.48136865234375	0		-1.0405457763671875	-0.06976426696777344	0		-0.7768646850585937	-2.440037109375	0		1.64612548828125	-0.483100830078125	0		3.15454443359375	0.027320846557617188	0		4.53653173828125	0.24241380310058594	0		5.5932490234375	0.12845263671875	0		-0.26724371337890623	5.93288330078125	0		
0.007468575954437256	-0.002362617015838623	0		0.4319254760742188	-2.47515234375	0		-1.132324462890625	-0.07265327453613281	0		-0.7755516357421876	-2.437949462890625	0		1.65127392578125	-0.4901369934082031	0		3.149029052734375	0.035495441436767576	0		4.53584521484375	0.24245951843261718	0		5.59156103515625	0.15452410888671875	0		-0.26783840942382814	5.93300634765625	0		
0.006788437843322754	-0.0022518250942230224	0		0.4451144104003906	-2.4793515625	0		-1.128941650390625	-0.06961123657226563	0		-0.8214132690429687	-2.44384716796875	0		1.6178106689453124	-0.4793392333984375	0		3.16312890625	0.025231157302856445	0		4.52999658203125	0.23460609436035157	0		5.59107373046875	0.15455958557128907	0		-0.23999310302734375	5.95250927734375	0		
0.009191743850708008	7.833240032196044E-4	0		0.44749859619140625	-2.475323974609375	0		-1.1224534912109374	-0.06264520263671874	0		-0.7718441162109375	-2.43182177734375	0		1.6560889892578126	-0.4821116333007813	0		3.145971923828125	0.04864403533935547	0		4.53277294921875	0.25456260681152343	0		5.59356103515625	0.16653485107421875	0		-0.2547917022705078	5.9419208984375	0		
0.0054919118881225585	-0.0020609068870544433	0		0.43393472290039065	-2.469959716796875	0		-1.1070283203125	-0.05988552093505859	0		-0.8125748291015625	-2.433848876953125	0		1.6065660400390624	-0.4759844360351563	0		3.121907958984375	0.02918756103515625	0		4.533880859375	0.24253807067871094	0		5.59727587890625	0.1542030029296875	0		-0.2695225830078125	5.93332177734375	0		
0.00488735818862915	-0.001983317017555237	0		0.4312259521484375	-2.4728447265625	0		-1.094876220703125	-0.07107042694091797	0		-0.7803347778320312	-2.43947509765625	0		1.648660888671875	-0.48986492919921876	0		3.151275146484375	0.02756288719177246	0		4.53327978515625	0.2425433807373047	0		5.589712890625	0.15456214904785157	0		-0.27003240966796876	5.93340380859375	0		
0.004317040920257568	-0.001918818950653076	0		0.4306173095703125	-2.472786865234375	0		-1.1314173583984375	-0.06920523834228516	0		-0.8507957153320312	-2.431875732421875	0		1.6081361083984376	-0.4869554443359375	0		3.150705322265625	0.027578561782836915	0		4.53271337890625	0.24253761291503906	0		5.59342724609375	0.13700480651855468	0		-0.2705106201171875	5.93347265625	0		
0.003783113956451416	-0.001867764949798584	0		0.4419129028320313	-2.479002197265625	0		-1.1288875732421875	-0.06620330047607421	0		-0.7707119750976562	-2.4485732421875	0		1.610681396484375	-0.48299465942382813	0		3.134698486328125	0.05192555618286133	0		4.522185546875	0.24273893737792968	0		5.596005859375	0.14890782165527344	0		-0.25771929931640625	5.94424169921875	0		
0.006351291179656982	0.0011038089990615845	0		0.4326231689453125	-2.467777099609375	0		-1.1212342529296875	-0.059325603485107424	0		-0.8498538208007812	-2.42980615234375	0		1.6142642822265625	-0.4790679626464844	0		3.14967578125	0.02757562828063965	0		4.53168994140625	0.24249440002441405	0		5.59152734375	0.16636039733886718	0		-0.25813134765625	5.944283203125	0		
-0.0020622949600219726	0.0033024559020996096	0		0.4310876159667969	-2.469736083984375	0		-1.0928538818359375	-0.06691694641113281	0		-0.7825361328125	-2.439251708984375	0		1.6496591796875	-0.4858488464355469	0		3.144392578125	0.035665363311767576	0		4.52123681640625	0.24267665100097657	0		5.59119873046875	0.16627618408203124	0		-0.2585110168457031	5.9443115234375	0		
0.0024047648906707765	-0.0017937129735946654	0		0.42652593994140625	-2.47464111328125	0		-1.1302685546875	-0.0660838623046875	0		-0.785032470703125	-2.44118603515625	0		1.640298095703125	-0.48266192626953125	0		3.145686279296875	0.022597286224365236	0		4.530814453125	0.2424136505126953	0		5.59089501953125	0.16617803955078125	0		-0.272096435546875	5.93361279296875	0		
-0.001047471046447754	-0.004728668212890625	0		0.42610986328125	-2.474647216796875	0		-1.09366552734375	-0.0668800277709961	0		-0.7874913330078125	-2.4431337890625	0		1.6457508544921875	-0.4898114929199219	0		3.10850439453125	0.032365619659423826	0		4.52525634765625	0.2344710693359375	0		5.5954072265625	0.14331694030761719	0		-0.2724150695800781	5.93361474609375	0		
0.0016637279987335204	-0.0018087509870529175	0		0.4406825866699219	-2.476992919921875	0		-1.14707275390625	-0.06872335052490235	0		-0.8428360595703125	-2.440937744140625	0		1.648478759765625	-0.48590936279296876	0		3.15389990234375	0.02031609344482422	0		4.532166015625	0.24625314331054687	0		5.60453271484375	0.15480735778808594	0		-0.2432970886230469	5.95196533203125	0		
0.0044071989059448246	0.0010993130207061768	0		0.4683084716796875	-2.478634765625	0		-1.0703695068359376	-0.06842155456542968	0		-0.7733291015625	-2.44848388671875	0		1.648152587890625	-0.48595108032226564	0		3.14119384765625	0.04853719711303711	0		4.52802294921875	0.2542688293457031	0		5.59717138671875	0.15504833984375	0		-0.258775390625	5.9422724609375	0		
0.0010511230230331422	-0.00187049400806427	0		0.4291794128417969	-2.469823974609375	0		-1.1234736328125	-0.059290889739990235	0		-0.7864860229492188	-2.44123046875	0		1.6389248046875	-0.4828057861328125	0		3.14433349609375	0.02239176940917969	0		4.53944677734375	0.24093293762207033	0		5.60409375	0.1545226287841797	0		-0.27320697021484375	5.93354736328125	0		
7.874860167503357E-4	-0.0019155219793319702	0		0.450715087890625	-2.478351806640625	0		-1.0918328857421875	-0.06402577209472657	0		-0.7898565673828125	-2.445202392578125	0		1.641437744140625	-0.4929275817871094	0		3.128073974609375	0.022670825958251952	0		4.52920947265625	0.24206895446777343	0		5.594525390625	0.14275105285644532	0		-0.27344345092773437	5.93250439453125	0		
-0.00251653790473938	-0.004901212215423584	0		0.43432940673828124	-2.484055908203125	0		-1.1540576171875	-0.06271247863769532	0		-0.7921578369140625	-2.4472041015625	0		1.64119482421875	-0.4929923095703125	0		3.143831298828125	0.02224444770812988	0		4.52897216796875	0.24198193359375	0		5.5966025390625	0.15458120727539063	0		-0.2736148681640625	5.93345458984375	0		
-0.004558466911315918	0.0030839970111846923	0		0.4361371765136719	-2.482159912109375	0		-1.148408447265625	-0.06889070892333984	0		-0.824232177734375	-2.43955615234375	0		1.607178955078125	-0.4833186950683594	0		3.12712158203125	0.04553163909912109	0		4.5187587890625	0.24211134338378906	0		5.6035302734375	0.1488467559814453	0		-0.2605516357421875	5.9441123046875	0		
-0.0016919490098953247	0.005959056854248047	0		0.4292300109863281	-2.468071533203125	0		-1.107551513671875	-0.06684002685546875	0		-0.7874780883789062	-2.441419189453125	0		1.6469237060546875	-0.48626376342773436	0		3.1465244140625	0.02701803207397461	0		4.5285595703125	0.24180291748046875	0		5.606396484375	0.16582470703125	0		-0.2607095031738281	5.9440556640625	0		
0.003016021013259888	7.927200198173523E-4	0		0.4768021545410156	-2.479181396484375	0		-1.1245758056640625	-0.059520156860351565	0		-0.7907621459960937	-2.445405517578125	0		1.597860595703125	-0.4802601928710937	0		3.156515869140625	0.03471869277954102	0		4.5283798828125	0.2417156219482422	0		5.6062666015625	0.16566278076171875	0		-0.27409027099609373	5.93328662109375	0		
-0.005103922843933105	0.002911678075790405	0		0.4257430419921875	-2.473123779296875	0		-1.1188529052734375	-0.06469936370849609	0		-0.8038082275390624	-2.4391728515625	0		1.631464599609375	-0.4910684814453125	0		3.14306884765625	0.02193144416809082	0		4.52821533203125	0.2416319580078125	0		5.60614794921875	0.16550767517089843	0		-0.2742195129394531	5.933232421875	0		
